<svg xmlns="http://www.w3.org/2000/svg" width="22" height="22" fill="none"><path fill="#fff" d="M4.5121 15.4807 2.4874 2.3333H1.2513a1.0833 1.0833 0 1 1 0-2.1666h2.1504a1.0757 1.0757 0 0 1 .715.2546c.2048.1722.3383.4142.3749.6792l.3553 2.3162h8.3211v2.1667H5.1806L6.513 14.25h10.1823l1.625-5.4167h2.262l-2.0432 6.811a1.0836 1.0836 0 0 1-1.0378.7724H5.602a1.0759 1.0759 0 0 1-.7313-.2687 1.0809 1.0809 0 0 1-.3597-.6673h.0011Zm4.3225 4.186a2.167 2.167 0 0 1-2.1666 2.1667 2.1668 2.1668 0 1 1 2.1666-2.1667Zm9.75 0a2.1666 2.1666 0 1 1-4.3333.0001 2.1666 2.1666 0 0 1 4.3333-.0001Zm0-19.5A1.0834 1.0834 0 0 1 19.668 1.25v1.0833h1.0833a1.0832 1.0832 0 0 1 1.0833 1.0834A1.0832 1.0832 0 0 1 20.7513 4.5H19.668v1.0834a1.0836 1.0836 0 0 1-1.0834 1.0833 1.0834 1.0834 0 0 1-1.0833-1.0833V4.5H16.418a1.0834 1.0834 0 1 1 0-2.1667h1.0833V1.25A1.0832 1.0832 0 0 1 18.5846.1667Z"/></svg>