<svg xmlns="http://www.w3.org/2000/svg" width="128" height="176" fill="none"><path fill="#FFE27D" d="M70.4008 19.1998a6.4003 6.4003 0 0 0-6.4-6.4 6.4 6.4 0 0 0-6.4 6.4v6.4a6.4 6.4 0 1 0 12.8 0v-6.4Zm29.8052 17.6448a6.4058 6.4058 0 0 0 1.796-4.5018 6.404 6.404 0 0 0-1.874-4.4698 6.4018 6.4018 0 0 0-4.4703-1.8743 6.3998 6.3998 0 0 0-4.5017 1.7963l-4.5248 4.5248a6.4 6.4 0 0 0 9.0496 9.0496l4.5252-4.5248Zm14.995 27.1552a6.4014 6.4014 0 0 1-1.875 4.5255 6.3993 6.3993 0 0 1-4.525 1.8745h-6.4a6.4 6.4 0 1 1 0-12.8h6.4c1.697 0 3.325.6743 4.525 1.8745a6.4016 6.4016 0 0 1 1.875 4.5255ZM32.3208 41.3694a6.4003 6.4003 0 0 0 11.0032-4.5018 6.4004 6.4004 0 0 0-1.9536-4.5478l-4.5248-4.5248a6.4 6.4 0 0 0-9.0496 9.0496l4.5248 4.5248Zm-.32 22.6304a6.4 6.4 0 0 1-6.4 6.4h-6.4a6.4 6.4 0 1 1 0-12.8h6.4a6.4003 6.4003 0 0 1 6.4 6.4Zm19.2 38.4002v-6.4002h25.6V102.4c0 3.395-1.3486 6.65-3.7491 9.051a12.8018 12.8018 0 0 1-9.0509 3.749 12.802 12.802 0 0 1-9.051-3.749 12.8009 12.8009 0 0 1-3.749-9.051Zm25.6-12.8002c.096-2.176 1.3312-4.1344 3.0528-5.4976a25.6006 25.6006 0 0 0 8.3334-28.4907 25.6002 25.6002 0 0 0-48.3724 0 25.5995 25.5995 0 0 0 8.3334 28.4907c1.728 1.3632 2.9568 3.3216 3.0464 5.4976h25.6064Z"/><path fill="#1E1E1E" d="M119.689 151.432c3.616-2.687 4.388-7.814 1.727-11.464-2.661-3.651-7.739-4.43-11.355-1.743l-24.3141 18.087H61.25c-1.7875 0-3.25-1.476-3.25-3.281 0-1.804 1.4625-3.281 3.25-3.281H77.5c3.5953 0 6.5-2.933 6.5-6.562 0-3.63-2.9047-6.563-6.5-6.563H45.3453c-5.9109 0-11.6391 2.03-16.25 5.742l-9.1203 7.383H12.5c-3.5953 0-6.5 2.933-6.5 6.562v13.126C6 173.067 8.9047 176 12.5 176h65.1016c5.8906 0 11.639-1.907 16.3921-5.435l25.7153-19.133h-.02Zm-74.364-1.703a.1047.1047 0 0 1 .0119.097.1048.1048 0 0 1-.0285.04.0961.0961 0 0 1-.0937.021.1018.1018 0 0 1-.043-.024.1086.1086 0 0 1-.0262-.043.0998.0998 0 0 1-.0033-.049.1047.1047 0 0 1-.0119-.097.1048.1048 0 0 1 .0285-.04.0961.0961 0 0 1 .0937-.021.1008.1008 0 0 1 .0429.024.1077.1077 0 0 1 .0263.043.101.101 0 0 1 .0033.049Z"/></svg>