<svg xmlns="http://www.w3.org/2000/svg" width="215" height="62" fill="none"><path fill="#627941" d="M0 17.3421c0-5.4418 4.4115-9.8533 9.8534-9.8533H215v44.143c0 5.4418-4.411 9.8533-9.853 9.8533H0v-44.143Z"/><path fill="#fff" d="M14.1048 13.9341h17.2815l-.6568 3.1197h-8.415l-1.6009 7.5119h7.0193l-.6567 3.1607h-7.0194L17.4297 40H8.5632l5.5416-26.0659ZM49.9845 40h-9.6054l-.5746-6.5267h-7.594L29.296 40h-3.9817l12.1093-26.0659h9.7286L49.9845 40Zm-16.4194-9.5233h5.952l-.9441-11.1652-5.0079 11.1652Zm43.9451-10.3443c0 1.6146-.4515 3.1061-1.3546 4.4743-.903 1.3683-2.3945 2.4082-4.4743 3.1197L76.443 40h-9.1539l-3.6123-11.3705h-.4515L60.8034 40h-8.8665l5.5416-26.0659h10.7958c1.2588 0 2.4492.0821 3.5712.2463 1.122.1368 2.0935.4378 2.9145.9031.8483.4378 1.5188 1.0672 2.0114 1.8882.4925.7936.7388 1.8472.7388 3.1607Zm-11.822 5.87c.7115 0 1.3136-.2326 1.8062-.6978.5199-.4926.9304-1.081 1.2314-1.7651.3284-.6842.561-1.4094.6978-2.1756.1369-.7936.2053-1.4777.2053-2.0524 0-.7115-.1232-1.3136-.3695-1.8062-.2462-.5199-.7799-.7799-1.6009-.7799h-1.8471l-2.0525 9.277h1.9293ZM108.043 40h-9.1131l3.7761-17.733L92.9779 40h-5.5826l-1.8472-18.3488L81.6074 40H77.913l5.5416-26.0659H93.922l1.2725 14.6954 7.8815-14.6954h10.549L108.043 40Zm27.246 0h-9.606l-.574-6.5267h-7.594L114.6 40h-3.981l12.109-26.0659h9.728L135.289 40Zm-16.42-9.5233h5.952l-.944-11.1652-5.008 11.1652Zm20.616-16.5426h9.359l1.395 17.6509 8.539-17.6509h4.063L150.691 40h-9.687l-1.519-26.0659Zm26.027 0h17.281l-.656 3.1197h-8.374l-1.724 7.9224h7.019l-.657 3.0786h-7.019l-1.888 8.7845h8.373L177.252 40H159.97l5.542-26.0659Zm40.102 3.1197h-6.609L194.12 40h-8.867l4.885-22.9462h-6.527l.739-3.1197h21.961l-.697 3.1197ZM39.0706 51.1577v-6.3061h3.7813v.6774h-3.0176v2.1308h2.7343v.6774h-2.7343v2.8205h-.7637Zm4.5603 0h-.8006l2.3156-6.3061h.7882l2.3156 6.3061h-.8006l-1.8845-5.3085h-.0492l-1.8845 5.3085Zm.2956-2.4633h3.227v.6774h-3.227v-.6774Zm5.3054 2.4633v-6.3061h2.1308c.4927 0 .8971.0841 1.2132.2525.3161.1662.5501.3951.702.6866.1519.2915.2279.623.2279.9946 0 .3715-.076.701-.2279.9884-.1519.2874-.3849.5132-.6989.6774-.3141.1622-.7154.2433-1.204.2433h-1.7243v-.6898h1.6997c.3366 0 .6076-.0492.8129-.1478.2073-.0985.3572-.2381.4495-.4187.0945-.1827.1417-.4003.1417-.6528 0-.2525-.0472-.4732-.1417-.662-.0944-.1889-.2453-.3346-.4526-.4373-.2073-.1047-.4814-.157-.8221-.157h-1.3426v5.6287h-.7636Zm2.9683-2.8328 1.5519 2.8328h-.8868l-1.5272-2.8328h.8621Zm2.5781-3.4733h.9114l2.1431 5.2346h.0739l2.1431-5.2346h.9114v6.3061h-.7143v-4.7912h-.0616l-1.9707 4.7912h-.6897l-1.9707-4.7912h-.0616v4.7912h-.7143v-6.3061Zm7.9727 6.3061h-.8006l2.3156-6.3061h.7882l2.3156 6.3061h-.8006l-1.8845-5.3085h-.0492l-1.8845 5.3085Zm.2956-2.4633h3.227v.6774h-3.227v-.6774Zm10.0835-1.8722h-.7636c-.0452-.2196-.1242-.4126-.2371-.5788a1.5782 1.5782 0 0 0-.4065-.4188 1.7235 1.7235 0 0 0-.5265-.2587 2.1055 2.1055 0 0 0-.6035-.0862c-.3818 0-.7277.0965-1.0377.2895-.3079.1929-.5532.4772-.7359.8529-.1807.3757-.271.8365-.271 1.3825 0 .5461.0903 1.0069.271 1.3826.1827.3757.428.66.7359.8529.31.193.6559.2895 1.0377.2895a2.102 2.102 0 0 0 .6035-.0863 1.7627 1.7627 0 0 0 .5265-.2555 1.6226 1.6226 0 0 0 .4065-.4219c.1129-.1683.1919-.3613.2371-.5789h.7636c-.0575.3223-.1621.6107-.3141.8653-.1519.2545-.3407.4711-.5665.6497-.2258.1765-.4793.311-.7606.4034-.2792.0923-.5778.1385-.896.1385-.5378 0-1.0161-.1313-1.4349-.3941-.4188-.2628-.7482-.6364-.9884-1.1208-.2402-.4845-.3603-1.0593-.3603-1.7244s.1201-1.2398.3603-1.7243c.2402-.4844.5696-.8581.9884-1.1208.4188-.2628.8971-.3941 1.4349-.3941.3182 0 .6168.0461.896.1385.2813.0924.5348.2279.7606.4065.2258.1765.4146.3921.5665.6466.152.2525.2566.5409.3141.8652Zm1.9976-1.9706v6.3061h-.7636v-6.3061h.7636Zm1.7898 6.3061h-.8006l2.3156-6.3061h.7882l2.3156 6.3061h-.8006l-1.8845-5.3085h-.0492l-1.8845 5.3085Zm.2956-2.4633h3.227v.6774h-3.227v-.6774Zm8.0028-3.8428 1.8721 5.3085h.0739l1.8721-5.3085h.8006l-2.3155 6.3061h-.7883l-2.3155-6.3061h.8006Zm5.601 6.3061v-6.3061h3.8058v.6774h-3.0422v2.1308h2.8452v.6774h-2.8452v2.1431h3.0915v.6774h-3.8551Zm4.8374-5.6287v-.6774h4.7297v.6774h-1.9831v5.6287h-.7637V45.529h-1.9829Zm5.9077 5.6287v-6.3061h3.806v.6774h-3.042v2.1308h2.845v.6774h-2.845v2.1431h3.092v.6774h-3.856Zm5.183 0v-6.3061h2.13c.493 0 .898.0841 1.214.2525.316.1662.55.3951.702.6866.152.2915.228.623.228.9946 0 .3715-.076.701-.228.9884-.152.2874-.385.5132-.699.6774-.314.1622-.716.2433-1.204.2433h-1.725v-.6898h1.7c.337 0 .608-.0492.813-.1478.207-.0985.357-.2381.45-.4187.094-.1827.141-.4003.141-.6528 0-.2525-.047-.4732-.141-.662-.095-.1889-.246-.3346-.453-.4373-.207-.1047-.481-.157-.822-.157h-1.343v5.6287h-.763Zm2.968-2.8328 1.552 2.8328h-.887l-1.527-2.8328h.862Zm3.342-3.4733v6.3061h-.764v-6.3061h.764Zm6.531 0v6.3061h-.739l-3.436-4.9513h-.062v4.9513h-.763v-6.3061h.739l3.448 4.9636h.062v-4.9636h.751Zm1.787 6.3061h-.801l2.316-6.3061h.788l2.316 6.3061h-.801l-1.884-5.3085h-.05l-1.884 5.3085Zm.296-2.4633h3.227v.6774h-3.227v-.6774Zm5.305 2.4633v-6.3061h2.131c.492 0 .897.0841 1.213.2525.316.1662.55.3951.702.6866.152.2915.228.623.228.9946 0 .3715-.076.701-.228.9884-.152.2874-.385.5132-.699.6774-.314.1622-.715.2433-1.204.2433h-1.724v-.6898h1.7c.336 0 .607-.0492.812-.1478.208-.0985.358-.2381.45-.4187.094-.1827.142-.4003.142-.6528 0-.2525-.048-.4732-.142-.662-.094-.1889-.245-.3346-.453-.4373-.207-.1047-.481-.157-.822-.157h-1.342v5.6287h-.764Zm2.968-2.8328 1.552 2.8328h-.887l-1.527-2.8328h.862Zm3.342-3.4733v6.3061h-.764v-6.3061h.764Zm1.79 6.3061h-.801l2.316-6.3061h.788l2.316 6.3061h-.801l-1.884-5.3085h-.05l-1.884 5.3085Zm.295-2.4633h3.227v.6774h-3.227v-.6774Zm13.065-.6898c0 .6651-.12 1.2399-.36 1.7244-.24.4844-.57.858-.988 1.1208-.419.2628-.897.3941-1.435.3941s-1.016-.1313-1.435-.3941c-.419-.2628-.748-.6364-.989-1.1208-.24-.4845-.36-1.0593-.36-1.7244s.12-1.2398.36-1.7243c.241-.4844.57-.8581.989-1.1208.419-.2628.897-.3941 1.435-.3941s1.016.1313 1.435.3941c.418.2627.748.6364.988 1.1208.24.4845.36 1.0592.36 1.7243Zm-.739 0c0-.546-.091-1.0068-.274-1.3825-.18-.3757-.426-.66-.736-.8529-.308-.193-.652-.2895-1.034-.2895s-.728.0965-1.038.2895c-.308.1929-.553.4772-.736.8529-.18.3757-.271.8365-.271 1.3825 0 .5461.091 1.0069.271 1.3826.183.3757.428.66.736.8529.31.193.656.2895 1.038.2895s.726-.0965 1.034-.2895c.31-.1929.556-.4772.736-.8529.183-.3757.274-.8365.274-1.3826Zm7.024-3.153v6.3061h-.739l-3.436-4.9513h-.062v4.9513h-.764v-6.3061h.739l3.449 4.9636h.062v-4.9636h.751Zm1.528 6.3061v-6.3061h.764v5.6287h2.931v.6774h-3.695Zm5.641-6.3061v6.3061h-.764v-6.3061h.764Zm6.532 0v6.3061h-.739l-3.437-4.9513h-.061v4.9513h-.764v-6.3061h.739l3.449 4.9636h.061v-4.9636h.752Zm1.528 6.3061v-6.3061h3.806v.6774h-3.043v2.1308h2.846v.6774h-2.846v2.1431h3.092v.6774h-3.855Z"/><path fill="#627941" d="M0 17.3421c0-5.4418 4.4115-9.8533 9.8534-9.8533H215v44.143c0 5.4418-4.411 9.8533-9.853 9.8533H0v-44.143Z"/><path fill="#fff" d="M14.1048 13.9341h17.2815l-.6568 3.1197h-8.415l-1.6009 7.5119h7.0193l-.6567 3.1607h-7.0194L17.4297 40H8.5632l5.5416-26.0659ZM49.9845 40h-9.6054l-.5746-6.5267h-7.594L29.296 40h-3.9817l12.1093-26.0659h9.7286L49.9845 40Zm-16.4194-9.5233h5.952l-.9441-11.1652-5.0079 11.1652Zm43.9451-10.3443c0 1.6146-.4515 3.1061-1.3546 4.4743-.903 1.3683-2.3945 2.4082-4.4743 3.1197L76.443 40h-9.1539l-3.6123-11.3705h-.4515L60.8034 40h-8.8665l5.5416-26.0659h10.7958c1.2588 0 2.4492.0821 3.5712.2463 1.122.1368 2.0935.4378 2.9145.9031.8483.4378 1.5188 1.0672 2.0114 1.8882.4925.7936.7388 1.8472.7388 3.1607Zm-11.822 5.87c.7115 0 1.3136-.2326 1.8062-.6978.5199-.4926.9304-1.081 1.2314-1.7651.3284-.6842.561-1.4094.6978-2.1756.1369-.7936.2053-1.4777.2053-2.0524 0-.7115-.1232-1.3136-.3695-1.8062-.2462-.5199-.7799-.7799-1.6009-.7799h-1.8471l-2.0525 9.277h1.9293ZM108.043 40h-9.1131l3.7761-17.733L92.9779 40h-5.5826l-1.8472-18.3488L81.6074 40H77.913l5.5416-26.0659H93.922l1.2725 14.6954 7.8815-14.6954h10.549L108.043 40Zm27.246 0h-9.606l-.574-6.5267h-7.594L114.6 40h-3.981l12.109-26.0659h9.728L135.289 40Zm-16.42-9.5233h5.952l-.944-11.1652-5.008 11.1652Zm20.616-16.5426h9.359l1.395 17.6509 8.539-17.6509h4.063L150.691 40h-9.687l-1.519-26.0659Zm26.027 0h17.281l-.656 3.1197h-8.374l-1.724 7.9224h7.019l-.657 3.0786h-7.019l-1.888 8.7845h8.373L177.252 40H159.97l5.542-26.0659Zm40.102 3.1197h-6.609L194.12 40h-8.867l4.885-22.9462h-6.527l.739-3.1197h21.961l-.697 3.1197ZM39.0706 51.1577v-6.3061h3.7813v.6774h-3.0176v2.1308h2.7343v.6774h-2.7343v2.8205h-.7637Zm4.5603 0h-.8006l2.3156-6.3061h.7882l2.3156 6.3061h-.8006l-1.8845-5.3085h-.0492l-1.8845 5.3085Zm.2956-2.4633h3.227v.6774h-3.227v-.6774Zm5.3054 2.4633v-6.3061h2.1308c.4927 0 .8971.0841 1.2132.2525.3161.1662.5501.3951.702.6866.1519.2915.2279.623.2279.9946 0 .3715-.076.701-.2279.9884-.1519.2874-.3849.5132-.6989.6774-.3141.1622-.7154.2433-1.204.2433h-1.7243v-.6898h1.6997c.3366 0 .6076-.0492.8129-.1478.2073-.0985.3572-.2381.4495-.4187.0945-.1827.1417-.4003.1417-.6528 0-.2525-.0472-.4732-.1417-.662-.0944-.1889-.2453-.3346-.4526-.4373-.2073-.1047-.4814-.157-.8221-.157h-1.3426v5.6287h-.7636Zm2.9683-2.8328 1.5519 2.8328h-.8868l-1.5272-2.8328h.8621Zm2.5781-3.4733h.9114l2.1431 5.2346h.0739l2.1431-5.2346h.9114v6.3061h-.7143v-4.7912h-.0616l-1.9707 4.7912h-.6897l-1.9707-4.7912h-.0616v4.7912h-.7143v-6.3061Zm7.9727 6.3061h-.8006l2.3156-6.3061h.7882l2.3156 6.3061h-.8006l-1.8845-5.3085h-.0492l-1.8845 5.3085Zm.2956-2.4633h3.227v.6774h-3.227v-.6774Zm10.0835-1.8722h-.7636c-.0452-.2196-.1242-.4126-.2371-.5788a1.5782 1.5782 0 0 0-.4065-.4188 1.7235 1.7235 0 0 0-.5265-.2587 2.1055 2.1055 0 0 0-.6035-.0862c-.3818 0-.7277.0965-1.0377.2895-.3079.1929-.5532.4772-.7359.8529-.1807.3757-.271.8365-.271 1.3825 0 .5461.0903 1.0069.271 1.3826.1827.3757.428.66.7359.8529.31.193.6559.2895 1.0377.2895a2.102 2.102 0 0 0 .6035-.0863 1.7627 1.7627 0 0 0 .5265-.2555 1.6226 1.6226 0 0 0 .4065-.4219c.1129-.1683.1919-.3613.2371-.5789h.7636c-.0575.3223-.1621.6107-.3141.8653-.1519.2545-.3407.4711-.5665.6497-.2258.1765-.4793.311-.7606.4034-.2792.0923-.5778.1385-.896.1385-.5378 0-1.0161-.1313-1.4349-.3941-.4188-.2628-.7482-.6364-.9884-1.1208-.2402-.4845-.3603-1.0593-.3603-1.7244s.1201-1.2398.3603-1.7243c.2402-.4844.5696-.8581.9884-1.1208.4188-.2628.8971-.3941 1.4349-.3941.3182 0 .6168.0461.896.1385.2813.0924.5348.2279.7606.4065.2258.1765.4146.3921.5665.6466.152.2525.2566.5409.3141.8652Zm1.9976-1.9706v6.3061h-.7636v-6.3061h.7636Zm1.7898 6.3061h-.8006l2.3156-6.3061h.7882l2.3156 6.3061h-.8006l-1.8845-5.3085h-.0492l-1.8845 5.3085Zm.2956-2.4633h3.227v.6774h-3.227v-.6774Zm8.0028-3.8428 1.8721 5.3085h.0739l1.8721-5.3085h.8006l-2.3155 6.3061h-.7883l-2.3155-6.3061h.8006Zm5.601 6.3061v-6.3061h3.8058v.6774h-3.0422v2.1308h2.8452v.6774h-2.8452v2.1431h3.0915v.6774h-3.8551Zm4.8374-5.6287v-.6774h4.7297v.6774h-1.9831v5.6287h-.7637V45.529h-1.9829Zm5.9077 5.6287v-6.3061h3.806v.6774h-3.042v2.1308h2.845v.6774h-2.845v2.1431h3.092v.6774h-3.856Zm5.183 0v-6.3061h2.13c.493 0 .898.0841 1.214.2525.316.1662.55.3951.702.6866.152.2915.228.623.228.9946 0 .3715-.076.701-.228.9884-.152.2874-.385.5132-.699.6774-.314.1622-.716.2433-1.204.2433h-1.725v-.6898h1.7c.337 0 .608-.0492.813-.1478.207-.0985.357-.2381.45-.4187.094-.1827.141-.4003.141-.6528 0-.2525-.047-.4732-.141-.662-.095-.1889-.246-.3346-.453-.4373-.207-.1047-.481-.157-.822-.157h-1.343v5.6287h-.763Zm2.968-2.8328 1.552 2.8328h-.887l-1.527-2.8328h.862Zm3.342-3.4733v6.3061h-.764v-6.3061h.764Zm6.531 0v6.3061h-.739l-3.436-4.9513h-.062v4.9513h-.763v-6.3061h.739l3.448 4.9636h.062v-4.9636h.751Zm1.787 6.3061h-.801l2.316-6.3061h.788l2.316 6.3061h-.801l-1.884-5.3085h-.05l-1.884 5.3085Zm.296-2.4633h3.227v.6774h-3.227v-.6774Zm5.305 2.4633v-6.3061h2.131c.492 0 .897.0841 1.213.2525.316.1662.55.3951.702.6866.152.2915.228.623.228.9946 0 .3715-.076.701-.228.9884-.152.2874-.385.5132-.699.6774-.314.1622-.715.2433-1.204.2433h-1.724v-.6898h1.7c.336 0 .607-.0492.812-.1478.208-.0985.358-.2381.45-.4187.094-.1827.142-.4003.142-.6528 0-.2525-.048-.4732-.142-.662-.094-.1889-.245-.3346-.453-.4373-.207-.1047-.481-.157-.822-.157h-1.342v5.6287h-.764Zm2.968-2.8328 1.552 2.8328h-.887l-1.527-2.8328h.862Zm3.342-3.4733v6.3061h-.764v-6.3061h.764Zm1.79 6.3061h-.801l2.316-6.3061h.788l2.316 6.3061h-.801l-1.884-5.3085h-.05l-1.884 5.3085Zm.295-2.4633h3.227v.6774h-3.227v-.6774Zm13.065-.6898c0 .6651-.12 1.2399-.36 1.7244-.24.4844-.57.858-.988 1.1208-.419.2628-.897.3941-1.435.3941s-1.016-.1313-1.435-.3941c-.419-.2628-.748-.6364-.989-1.1208-.24-.4845-.36-1.0593-.36-1.7244s.12-1.2398.36-1.7243c.241-.4844.57-.8581.989-1.1208.419-.2628.897-.3941 1.435-.3941s1.016.1313 1.435.3941c.418.2627.748.6364.988 1.1208.24.4845.36 1.0592.36 1.7243Zm-.739 0c0-.546-.091-1.0068-.274-1.3825-.18-.3757-.426-.66-.736-.8529-.308-.193-.652-.2895-1.034-.2895s-.728.0965-1.038.2895c-.308.1929-.553.4772-.736.8529-.18.3757-.271.8365-.271 1.3825 0 .5461.091 1.0069.271 1.3826.183.3757.428.66.736.8529.31.193.656.2895 1.038.2895s.726-.0965 1.034-.2895c.31-.1929.556-.4772.736-.8529.183-.3757.274-.8365.274-1.3826Zm7.024-3.153v6.3061h-.739l-3.436-4.9513h-.062v4.9513h-.764v-6.3061h.739l3.449 4.9636h.062v-4.9636h.751Zm1.528 6.3061v-6.3061h.764v5.6287h2.931v.6774h-3.695Zm5.641-6.3061v6.3061h-.764v-6.3061h.764Zm6.532 0v6.3061h-.739l-3.437-4.9513h-.061v4.9513h-.764v-6.3061h.739l3.449 4.9636h.061v-4.9636h.752Zm1.528 6.3061v-6.3061h3.806v.6774h-3.043v2.1308h2.846v.6774h-2.846v2.1431h3.092v.6774h-3.855Z"/></svg>