<?xml version="1.0" encoding="UTF-8"?>
<svg id="Capa_1" data-name="Capa 1" xmlns="http://www.w3.org/2000/svg" viewBox="0 0 692.93 225.5">
  <defs>
    <style>
      .cls-1 {
        fill: #454545;
      }

      .cls-1, .cls-2, .cls-3 {
        stroke-width: 0px;
      }

      .cls-2 {
        fill: #627941;
      }

      .cls-3 {
        fill: #d9d9d9;
      }

      .cls-4 {
        fill: none;
        stroke: #627941;
        stroke-miterlimit: 10;
        stroke-width: 3px;
      }
    </style>
  </defs>
  <path class="cls-4" d="m691.22,75.65l-12.33,76.13c-1.43,8.82-9.9,15.96-18.91,15.96h-44.83c-3.8,0-7.36,3.01-7.97,6.72l-5.91,36.49c-1.08,6.64-7.46,12.03-14.25,12.03h-42.43c-19.17,0-32.25-15.19-29.21-33.94l3.33-20.55c1.08-6.64-3.56-12.03-10.35-12.03h-43.43c-6.79,0-11.43-5.38-10.35-12.03l6.72-41.48c3.04-18.74,18.4-27.25,37.57-27.25h21.02c6.79,0,15.81-12.08,16.89-18.72l3.33-20.55c3.04-18.74,21.04-33.94,40.21-33.94h42.43c6.79,0,11.43,5.38,10.35,12.03l-6.22,38.42c-.6,3.71,1.99,6.72,5.79,6.72h44.83c9.02,0,15.17,7.15,13.74,15.96Z"/>
  <path class="cls-3" d="m679.4,80.33l-10.27,64.85c-1.08,6.79-7.45,12.29-14.24,12.29h-43.44c-6.79,0-13.16,5.5-14.24,12.29l-6.88,43.45c-1.08,6.79-7.45,12.29-14.24,12.29h-42.44c-13.26,0-23.6-7.43-27.71-18.34-.67-1.78-2.3-2.94-4.32-2.94l-472.08-.89c-3.16,0-5.32-2.56-4.82-5.73l7.69-48.54c.08-.5.54-.9,1.04-.9l405.73.89c2.12,0,4.12-1.72,4.45-3.84v-.04s6.73-42.43,6.73-42.43c3.04-19.17,21.04-34.71,40.21-34.71h21.01c6.8,0,13.18-5.51,14.25-12.3l3.33-21.01c3.04-19.17,21.04-34.71,40.21-34.71h42.43c6.8,0,11.43,5.51,10.36,12.3l-6.88,43.44c-1.08,6.79,3.56,12.29,10.35,12.29h43.44c6.79,0,11.42,5.5,10.35,12.29Z"/>
  <g>
    <path class="cls-1" d="m59.55,166.95h-4.54l.46-2.4h4.54l.31-1.48c1.12-5.77,3.83-8.01,8.06-8.01,1.84,0,3.83.41,5.56,1.07l-.31,1.63h-4.85c-3.16,0-4.39,1.28-5.1,5.05l-.36,1.74h8.12l-.46,2.4h-8.12l-4.8,24.65h-3.32l4.8-24.65Z"/>
    <path class="cls-1" d="m81.34,191.6l-.2-.87c-2.14.82-3.47,1.17-5,1.17-3.98,0-6.79-2.4-6.79-6.69s2.3-7.5,8.83-8.83l5.31-1.07.71-3.68c.66-3.32-.41-4.7-3.73-4.7h-6.38l.31-1.63c3.16-.82,5.21-1.07,7.3-1.07,4.59,0,6.74,2.71,5.82,7.4l-3.88,19.96h-2.3Zm-.56-2.4l2.25-11.59-4.59,1.07c-3.83.87-5.31,2.45-5.62,5.46l-.05.51c-.31,2.96,1.22,4.54,4.34,4.54h3.67Z"/>
    <path class="cls-1" d="m95.37,164.55h2.3l.2.87c1.89-.71,4.19-1.17,5.61-1.17.97,0,1.79.1,2.35.31l-.46,2.4h-7.15l-4.8,24.65h-3.32l5.26-27.05Z"/>
    <path class="cls-1" d="m109.61,164.55h2.3l.2.87c2.96-.82,4.64-1.17,6.33-1.17,1.84,0,3.27.41,4.24,1.22,3.93-1.07,6.23-1.22,8.52-1.22,4.75,0,6.74,2.86,5.77,7.91l-3.78,19.45h-3.32l3.83-19.65c.71-3.57-.51-5-4.13-5h-5.72c.66,1.28.77,3.06.36,5.21l-3.78,19.45h-3.32l3.83-19.65c.71-3.57-.51-5-4.13-5h-4.34l-4.8,24.65h-3.32l5.26-27.05Z"/>
    <path class="cls-1" d="m151.05,191.6l-.2-.87c-2.14.82-3.47,1.17-5,1.17-3.98,0-6.79-2.4-6.79-6.69s2.3-7.5,8.83-8.83l5.31-1.07.71-3.68c.66-3.32-.41-4.7-3.73-4.7h-6.38l.31-1.63c3.16-.82,5.21-1.07,7.3-1.07,4.59,0,6.74,2.71,5.82,7.4l-3.88,19.96h-2.3Zm-.56-2.4l2.25-11.59-4.59,1.07c-3.83.87-5.31,2.45-5.62,5.46l-.05.51c-.31,2.96,1.22,4.54,4.34,4.54h3.67Z"/>
    <path class="cls-1" d="m169.27,189.2h3.67l-.31,1.63c-1.48.66-3.16,1.07-4.54,1.07-5.21,0-8.42-4.13-6.89-12.56l.56-3.06c1.58-8.58,5.1-12.05,10.72-12.05,1.63,0,3.47.31,5.1,1.07l-.31,1.63h-4.7c-3.67,0-5.97,2.09-7.04,7.61l-1.28,6.53c-1.02,5.26,1.07,8.12,5,8.12Z"/>
    <path class="cls-1" d="m181.97,164.55h3.32l-5.26,27.05h-3.32l5.26-27.05Zm.77-6.58c0-1.53.92-2.6,2.55-2.6,1.17,0,1.99.61,1.99,1.89,0,1.53-.92,2.6-2.55,2.6-1.17,0-1.99-.61-1.99-1.89Z"/>
    <path class="cls-1" d="m198.05,191.6l-.2-.87c-2.14.82-3.47,1.17-5,1.17-3.98,0-6.79-2.4-6.79-6.69s2.3-7.5,8.83-8.83l5.31-1.07.71-3.68c.66-3.32-.41-4.7-3.73-4.7h-6.38l.31-1.63c3.16-.82,5.21-1.07,7.3-1.07,4.59,0,6.74,2.71,5.82,7.4l-3.88,19.96h-2.3Zm-.56-2.4l2.25-11.59-4.59,1.07c-3.83.87-5.31,2.45-5.62,5.46l-.05.51c-.31,2.96,1.22,4.54,4.34,4.54h3.67Z"/>
    <path class="cls-1" d="m219.84,191.6l-2.09-27.05h3.32l1.33,22.15,10.11-22.15h3.16l-12.61,27.05h-3.21Z"/>
    <path class="cls-1" d="m249.34,190.83c-1.79.61-3.62,1.07-5.56,1.07-6.43,0-9.44-3.98-7.91-12.56l.46-2.55c1.58-8.93,5.05-12.56,10.21-12.56,4.19,0,6.84,2.76,6.84,7.2,0,2.4-.82,5.67-1.48,7.35h-12.56l-.36,1.84c-1.12,5.82,1.02,8.58,5.67,8.58h5l-.31,1.63Zm-9.54-14.44h9.7l.51-2.6c.87-4.39-.51-6.99-3.67-6.99s-5.16,2.4-6.02,6.99l-.51,2.6Z"/>
    <path class="cls-1" d="m266.64,190.83c-1.43.61-3.01,1.07-4.49,1.07-3.78,0-5.97-2.71-5.05-7.4l3.42-17.56h-3.67l.46-2.4h3.67l2.96-4.7h1.28l-.92,4.7h6.94l-.46,2.4h-6.94l-3.47,17.81c-.66,3.37.25,4.44,3.27,4.44h3.32l-.31,1.63Z"/>
    <path class="cls-1" d="m284.91,190.83c-1.79.61-3.62,1.07-5.56,1.07-6.43,0-9.44-3.98-7.91-12.56l.46-2.55c1.58-8.93,5.05-12.56,10.21-12.56,4.19,0,6.84,2.76,6.84,7.2,0,2.4-.82,5.67-1.48,7.35h-12.56l-.36,1.84c-1.12,5.82,1.02,8.58,5.67,8.58h5l-.31,1.63Zm-9.54-14.44h9.7l.51-2.6c.87-4.39-.51-6.99-3.67-6.99s-5.16,2.4-6.02,6.99l-.51,2.6Z"/>
    <path class="cls-1" d="m295.67,164.55h2.3l.2.87c1.89-.71,4.19-1.17,5.61-1.17.97,0,1.79.1,2.35.31l-.46,2.4h-7.15l-4.8,24.65h-3.32l5.26-27.05Z"/>
    <path class="cls-1" d="m309.91,164.55h3.32l-5.26,27.05h-3.32l5.26-27.05Zm.77-6.58c0-1.53.92-2.6,2.55-2.6,1.17,0,1.99.61,1.99,1.89,0,1.53-.92,2.6-2.55,2.6-1.17,0-1.99-.61-1.99-1.89Z"/>
    <path class="cls-1" d="m319.86,164.55h2.3l.2.87c3.06-.87,4.85-1.17,6.58-1.17,4.75,0,6.74,2.86,5.77,7.91l-3.78,19.45h-3.32l3.83-19.65c.71-3.57-.51-5-4.13-5h-4.59l-4.8,24.65h-3.32l5.26-27.05Z"/>
    <path class="cls-1" d="m348.8,191.6l-.2-.87c-2.14.82-3.47,1.17-5,1.17-3.98,0-6.79-2.4-6.79-6.69s2.3-7.5,8.83-8.83l5.31-1.07.71-3.68c.66-3.32-.41-4.7-3.73-4.7h-6.38l.31-1.63c3.16-.82,5.21-1.07,7.3-1.07,4.59,0,6.74,2.71,5.82,7.4l-3.88,19.96h-2.3Zm-.56-2.4l2.25-11.59-4.59,1.07c-3.83.87-5.31,2.45-5.62,5.46l-.05.51c-.31,2.96,1.22,4.54,4.34,4.54h3.67Z"/>
    <path class="cls-1" d="m362.83,164.55h2.3l.2.87c1.89-.71,4.19-1.17,5.61-1.17.97,0,1.79.1,2.35.31l-.46,2.4h-7.15l-4.8,24.65h-3.32l5.26-27.05Z"/>
    <path class="cls-1" d="m377.07,164.55h3.32l-5.26,27.05h-3.32l5.26-27.05Zm.77-6.58c0-1.53.92-2.6,2.55-2.6,1.17,0,1.99.61,1.99,1.89,0,1.53-.92,2.6-2.55,2.6-1.17,0-1.99-.61-1.99-1.89Z"/>
    <path class="cls-1" d="m393.14,191.6l-.2-.87c-2.14.82-3.47,1.17-5,1.17-3.98,0-6.79-2.4-6.79-6.69s2.3-7.5,8.83-8.83l5.31-1.07.71-3.68c.66-3.32-.41-4.7-3.73-4.7h-6.38l.31-1.63c3.16-.82,5.21-1.07,7.3-1.07,4.59,0,6.74,2.71,5.82,7.4l-3.88,19.96h-2.3Zm-.56-2.4l2.25-11.59-4.59,1.07c-3.83.87-5.31,2.45-5.62,5.46l-.05.51c-.31,2.96,1.22,4.54,4.34,4.54h3.67Z"/>
    <path class="cls-1" d="m411.46,179.35l.46-2.55c1.58-8.78,5.1-12.56,10.26-12.56,5.87,0,8.58,4.39,7.09,12.56l-.46,2.55c-1.58,8.78-5.1,12.56-10.26,12.56-5.87,0-8.58-4.39-7.09-12.56Zm13.58,1.74l1.17-6.02c1.02-5.21-.41-8.27-4.03-8.27-3.21,0-5.21,1.84-6.48,8.27l-1.17,6.02c-1.02,5.26.41,8.27,4.03,8.27,3.27,0,5.26-1.89,6.48-8.27Z"/>
    <path class="cls-1" d="m437.29,164.55h2.3l.2.87c3.06-.87,4.85-1.17,6.58-1.17,4.75,0,6.74,2.86,5.77,7.91l-3.78,19.45h-3.32l3.83-19.65c.71-3.57-.51-5-4.13-5h-4.59l-4.8,24.65h-3.32l5.26-27.05Z"/>
    <path class="cls-1" d="m461.88,155.36h3.32l-7.04,36.24h-3.32l7.04-36.24Z"/>
    <path class="cls-1" d="m470.05,164.55h3.32l-5.26,27.05h-3.32l5.26-27.05Zm.77-6.58c0-1.53.92-2.6,2.55-2.6,1.17,0,1.99.61,1.99,1.89,0,1.53-.92,2.6-2.55,2.6-1.17,0-1.99-.61-1.99-1.89Z"/>
    <path class="cls-1" d="m480,164.55h2.3l.2.87c3.06-.87,4.85-1.17,6.58-1.17,4.75,0,6.74,2.86,5.77,7.91l-3.78,19.45h-3.32l3.83-19.65c.71-3.57-.51-5-4.13-5h-4.59l-4.8,24.65h-3.32l5.26-27.05Z"/>
    <path class="cls-1" d="m512.41,190.83c-1.79.61-3.62,1.07-5.56,1.07-6.43,0-9.44-3.98-7.91-12.56l.46-2.55c1.58-8.93,5.05-12.56,10.21-12.56,4.19,0,6.84,2.76,6.84,7.2,0,2.4-.82,5.67-1.48,7.35h-12.56l-.36,1.84c-1.12,5.82,1.02,8.58,5.67,8.58h5l-.31,1.63Zm-9.54-14.44h9.7l.51-2.6c.87-4.39-.51-6.99-3.67-6.99s-5.16,2.4-6.02,6.99l-.51,2.6Z"/>
  </g>
  <g>
    <path class="cls-2" d="m20.19,41.42h52.74l-3.16,16.58h-27.73l-5.58,28.78h23.21l-3.32,16.58h-23.21l-8.14,42.04H0L20.19,41.42Z"/>
    <path class="cls-2" d="m94.63,128.83h-20.65l-6.63,16.58h-20.8l46.26-103.98h20.65l5.88,103.98h-24.56l-.15-16.58Zm-.15-15.07l-.3-35.41-14.17,35.41h14.47Z"/>
    <path class="cls-2" d="m146.47,41.42h28.03c25.62,0,35.56,11.15,32.4,31.8l-.3,1.96c-2.11,13.11-8.14,21.4-18.99,25.32l8.89,44.91h-26.37l-5.27-39.18h-6.03l-7.53,39.18h-25.02l20.19-103.98Zm21.85,16.58l-6.18,31.65h6.03c6.63,0,11.15-3.47,12.51-10.4l2.11-10.85c1.36-7.08-1.96-10.4-8.44-10.4h-6.03Z"/>
    <path class="cls-2" d="m264.76,145.4l10.55-54.55-20.34,27.88h-8.14l-9.34-27.88-10.7,54.55h-23.06l20.19-103.98h14.32l17.03,51.69,37.22-51.69h15.52l-20.19,103.98h-23.06Z"/>
    <path class="cls-2" d="m342.82,128.83h-20.65l-6.63,16.58h-20.8l46.26-103.98h20.65l5.88,103.98h-24.56l-.15-16.58Zm-.15-15.07l-.3-35.41-14.17,35.41h14.47Z"/>
    <path class="cls-2" d="m405.96,108.48l26.82-67.06h20.8l-46.26,103.98h-20.65l-5.88-103.98h24.56l.6,67.06Z"/>
    <path class="cls-2" d="m460.2,41.42h53.2l-3.16,16.58h-28.48l-5.12,26.07h23.96l-3.17,16.58h-23.96l-5.58,28.18h28.48l-3.17,16.58h-53.2l20.19-103.98Z"/>
    <path class="cls-2" d="m534.79,58h-20.8l3.17-16.58h66.61l-3.17,16.58h-20.8l-17.03,87.4h-25.02l17.03-87.4Z"/>
  </g>
</svg>